<?xml version="1.0" standalone="no"?>
<!DOCTYPE svg PUBLIC "-//W3C//DTD SVG 20010904//EN"
 "http://www.w3.org/TR/2001/REC-SVG-20010904/DTD/svg10.dtd">
<svg version="1.0" xmlns="http://www.w3.org/2000/svg"
 width="3579.000000pt" height="867.000000pt" viewBox="0 0 3579.000000 867.000000"
 preserveAspectRatio="xMidYMid meet">
<metadata>
Created by potrace 1.12, written by Peter Selinger 2001-2015
</metadata>
<g transform="translate(0.000000,867.000000) scale(0.100000,-0.100000)"
fill="#000000" stroke="none">
<path d="M25350 8600 c-243 -112 -629 -209 -1005 -251 -117 -13 -108 -5 -121
-115 l-6 -61 73 -22 c41 -13 104 -32 141 -43 116 -34 178 -96 178 -178 0 -16
-234 -994 -520 -2172 -287 -1179 -528 -2186 -536 -2238 -22 -132 -14 -313 16
-394 29 -77 89 -137 160 -161 43 -14 74 -17 164 -12 239 12 443 111 653 318
144 142 234 255 425 535 l97 141 -68 56 -68 56 -34 -42 c-135 -169 -365 -389
-481 -459 -69 -43 -108 -47 -154 -19 -48 29 -67 81 -62 165 4 49 193 802 617
2456 720 2804 639 2490 638 2489 -1 -1 -49 -23 -107 -49z"/>
<path d="M18920 8634 c-434 -55 -806 -247 -1184 -614 -223 -216 -375 -427
-517 -715 -127 -260 -225 -548 -295 -867 l-28 -128 -362 0 -363 0 -15 -52 c-8
-29 -28 -97 -44 -150 l-29 -98 378 0 c214 0 379 -4 379 -9 0 -7 -440 -2075
-930 -4371 -230 -1075 -340 -1594 -340 -1597 0 -1 83 -3 183 -3 l184 0 11 38
c88 299 565 2123 996 3805 300 1171 546 2131 546 2134 0 8 1380 -4 1388 -11 3
-3 -117 -538 -266 -1189 -149 -650 -276 -1211 -282 -1247 -13 -87 -13 -276 1
-342 35 -163 144 -255 313 -265 190 -12 359 78 597 316 157 158 271 297 517
633 l42 57 -64 50 -63 50 -134 -135 c-317 -322 -496 -429 -578 -346 -49 48
-49 143 0 337 11 44 166 589 344 1210 178 622 327 1142 330 1157 l7 28 -1044
2 -1044 3 73 309 c97 415 175 643 327 961 86 180 122 237 212 340 124 142 288
265 434 325 261 108 581 63 691 -96 44 -64 60 -117 69 -229 8 -99 8 -100 48
-136 47 -45 114 -67 227 -75 111 -9 180 12 245 72 75 70 94 125 95 264 0 109
-2 118 -33 184 -42 89 -147 194 -256 255 -85 48 -228 100 -346 126 -73 16
-345 28 -420 19z"/>
<path d="M29410 8564 c-63 -24 -167 -62 -230 -84 -117 -39 -630 -155 -741
-167 -33 -3 -61 -9 -63 -12 -2 -3 -7 -33 -11 -66 l-6 -60 128 -34 c203 -54
263 -93 263 -172 0 -28 -299 -1523 -335 -1676 -5 -21 -6 -21 -93 17 -234 101
-494 136 -712 94 -379 -72 -834 -354 -1240 -770 -163 -167 -274 -303 -392
-484 -97 -148 -256 -459 -312 -611 -122 -333 -169 -651 -135 -919 52 -422 267
-654 641 -689 387 -37 805 109 1153 401 221 186 395 394 540 646 26 46 49 81
52 79 2 -3 -21 -111 -52 -241 -85 -363 -98 -469 -71 -597 19 -89 46 -138 101
-187 64 -57 119 -73 255 -79 138 -6 205 8 325 66 222 109 420 318 695 733
l138 208 -47 37 c-25 20 -51 40 -57 45 -8 6 -55 -42 -141 -144 -135 -160 -230
-254 -308 -308 -119 -82 -241 -108 -287 -62 -21 20 -23 32 -23 120 1 91 33
240 543 2512 299 1328 545 2423 548 2433 7 23 7 23 -126 -29z m-1641 -2485
c179 -41 316 -197 366 -419 118 -519 -195 -1356 -705 -1884 -254 -263 -504
-413 -743 -446 -260 -37 -467 120 -542 410 -25 99 -31 329 -11 470 93 662 547
1395 1066 1722 203 127 416 183 569 147z"/>
<path d="M2823 8189 c-620 -47 -1240 -295 -1738 -694 -133 -106 -361 -335
-464 -465 -323 -407 -512 -846 -583 -1355 -16 -116 -16 -502 0 -625 61 -461
226 -857 499 -1195 299 -371 732 -655 1220 -799 277 -83 533 -117 858 -117
426 0 630 41 1095 223 113 44 228 87 255 95 70 21 186 13 243 -16 24 -12 46
-21 48 -19 4 4 294 1203 294 1216 0 11 -154 42 -158 32 -18 -49 -203 -399
-252 -478 -349 -557 -815 -812 -1484 -812 -374 0 -691 92 -977 281 -119 79
-320 279 -411 409 -267 380 -408 889 -408 1472 0 446 92 851 285 1255 347 725
933 1201 1645 1337 226 43 558 46 751 7 343 -69 607 -236 778 -491 113 -168
154 -320 155 -566 l0 -162 58 -16 c32 -9 64 -16 71 -16 9 0 19 30 30 93 10 50
66 340 125 644 l108 552 -48 11 -48 12 -56 -51 c-133 -121 -175 -121 -430 1
-98 48 -227 102 -286 122 -301 100 -772 146 -1175 115z"/>
<path d="M5940 6405 c-90 -24 -248 -109 -361 -195 -203 -152 -464 -423 -673
-699 l-93 -124 53 -48 c30 -27 56 -49 58 -49 2 0 36 32 77 72 167 162 317 274
455 340 71 34 96 41 149 42 73 1 96 -14 126 -79 24 -53 24 -163 0 -281 -10
-49 -172 -602 -360 -1227 -187 -625 -341 -1141 -341 -1147 0 -6 98 -10 285
-10 157 0 285 2 285 4 0 16 142 465 196 621 250 718 427 1139 609 1452 171
293 361 496 540 578 177 82 384 101 615 57 137 -26 170 -21 234 38 96 89 147
280 115 432 -14 64 -48 135 -81 165 -13 12 -46 32 -73 45 -44 20 -65 23 -185
23 -157 -1 -217 -14 -356 -79 -218 -103 -462 -310 -665 -566 -99 -125 -149
-196 -249 -363 -45 -76 -85 -136 -87 -133 -2 2 30 134 71 293 87 330 106 426
106 535 0 132 -51 228 -152 283 -46 26 -65 30 -148 32 -61 2 -115 -3 -150 -12z"/>
<path d="M9635 6404 c-181 -33 -450 -142 -660 -269 -358 -216 -746 -581 -1005
-944 -199 -280 -356 -611 -426 -896 -90 -370 -64 -745 67 -968 51 -87 200
-238 282 -286 376 -221 937 -109 1402 281 222 186 416 424 534 656 12 24 24
42 26 40 2 -2 -19 -95 -46 -208 -64 -269 -83 -398 -76 -520 11 -175 55 -260
162 -315 53 -27 69 -30 173 -34 141 -4 220 13 349 75 122 59 225 138 363 281
126 130 206 230 388 490 l121 172 -67 49 -66 50 -166 -167 c-173 -176 -265
-251 -365 -300 -151 -74 -225 -43 -225 94 0 44 83 409 315 1385 174 729 318
1331 320 1338 3 9 -55 12 -269 12 l-273 0 -28 -107 c-15 -60 -30 -110 -31
-112 -2 -2 -26 17 -53 41 -78 70 -216 133 -364 164 -86 18 -276 17 -382 -2z
m228 -274 c117 -19 225 -90 289 -190 16 -25 40 -81 55 -125 35 -109 43 -316
18 -465 -56 -336 -195 -670 -421 -1010 -297 -448 -677 -779 -1034 -901 -86
-30 -106 -33 -215 -33 -114 -1 -123 0 -186 30 -159 76 -243 214 -269 445 -32
285 88 723 305 1109 364 649 937 1128 1375 1149 14 0 51 -3 83 -9z"/>
<path d="M12853 6405 c-201 -36 -414 -143 -623 -312 -113 -92 -339 -327 -498
-518 l-141 -170 60 -60 59 -60 57 56 c330 317 398 371 508 410 96 33 185 19
221 -36 14 -22 16 -41 11 -123 -4 -53 -17 -142 -31 -197 -14 -55 -158 -521
-321 -1035 -397 -1252 -425 -1340 -425 -1351 0 -5 126 -9 303 -9 l302 0 114
303 c137 364 206 528 307 730 232 462 531 884 864 1217 299 299 574 468 806
495 110 12 179 -21 210 -101 32 -83 41 -48 -311 -1194 -136 -443 -256 -839
-266 -880 -40 -153 -41 -357 -3 -448 22 -54 78 -107 148 -139 58 -27 68 -28
206 -28 129 1 153 4 223 27 127 43 209 98 343 232 139 139 260 283 463 550
l145 189 -40 34 c-21 19 -51 42 -65 53 l-26 19 -66 -87 c-336 -449 -705 -580
-673 -240 10 111 30 183 327 1168 154 509 291 979 305 1045 17 78 26 152 26
212 1 80 -3 99 -26 147 -47 96 -107 122 -260 113 -412 -24 -914 -273 -1431
-712 -242 -205 -428 -404 -636 -676 -67 -88 -123 -158 -125 -156 -2 1 78 228
177 502 213 593 232 657 233 780 1 75 -3 98 -23 138 -44 90 -125 128 -270 126
-47 0 -118 -7 -158 -14z"/>
<path d="M22234 6405 c-429 -63 -860 -299 -1225 -672 -410 -417 -672 -944
-739 -1483 -15 -124 -12 -399 5 -507 51 -314 207 -558 439 -687 351 -196 954
-138 1457 140 201 111 443 300 642 501 l108 109 -61 67 -62 67 -91 -81 c-303
-269 -573 -418 -870 -480 -138 -30 -366 -32 -482 -6 -250 58 -412 213 -459
440 -29 139 -20 347 25 559 l11 56 102 12 c671 79 1290 295 1674 584 316 239
483 530 485 851 2 225 -80 361 -277 455 -175 83 -432 111 -682 75z m187 -242
c135 -60 192 -189 170 -387 -33 -293 -169 -521 -426 -714 -233 -174 -565 -307
-915 -366 -121 -20 -260 -34 -265 -26 -10 17 85 265 164 425 295 597 689 1011
1035 1085 64 14 187 5 237 -17z"/>
<path d="M30050 2123 c-382 -29 -596 -212 -617 -523 -13 -210 69 -368 235
-446 32 -15 142 -45 257 -71 258 -56 341 -84 395 -130 59 -51 80 -100 80 -194
0 -104 -21 -162 -85 -225 -159 -159 -509 -143 -689 32 -48 47 -53 60 -61 182
l-8 102 -52 0 -52 0 -6 -142 c-6 -131 -18 -233 -32 -278 -4 -13 6 -22 47 -40
173 -74 303 -100 502 -100 287 1 438 54 596 210 130 128 176 249 167 440 -5
127 -29 197 -90 266 -85 96 -159 127 -427 174 -265 47 -340 70 -398 124 -64
57 -89 181 -57 277 24 73 100 148 178 177 120 45 277 38 397 -19 121 -57 139
-82 140 -191 0 -105 2 -108 65 -108 l52 0 7 118 c3 64 13 148 20 186 12 63 12
70 -5 87 -52 52 -379 106 -559 92z"/>
<path d="M33940 2074 c0 -30 2 -32 47 -39 58 -9 109 -34 145 -72 16 -16 158
-204 318 -418 l290 -390 0 -276 c0 -152 -5 -301 -10 -330 -19 -99 -67 -137
-185 -146 l-75 -6 0 -31 0 -31 430 0 430 0 0 31 0 31 -78 6 c-102 6 -138 25
-165 85 -21 45 -22 64 -25 397 l-4 351 262 363 c277 383 298 406 392 432 34 9
38 13 38 42 l0 32 -270 0 -270 0 0 -31 c0 -31 0 -31 66 -38 76 -8 120 -27 129
-56 12 -39 -15 -85 -265 -438 -126 -178 -136 -190 -151 -174 -13 14 -333 452
-408 560 -43 61 -15 94 92 107 56 7 57 8 57 39 l0 31 -395 0 -395 0 0 -31z"/>
<path d="M26145 2090 c-264 -3 -481 -7 -482 -8 -2 -1 -3 -21 -3 -45 l0 -43 91
-10 c57 -7 96 -17 106 -27 12 -12 18 -48 24 -149 11 -189 11 -896 -1 -1133
-10 -200 -10 -200 -37 -222 -14 -12 -44 -29 -65 -39 -32 -14 -38 -22 -38 -48
l0 -31 644 0 c354 0 647 2 650 5 2 3 10 78 16 167 5 89 13 183 16 208 l7 45
-51 0 c-45 0 -52 -3 -56 -22 -3 -13 -12 -57 -20 -98 -22 -115 -29 -127 -76
-140 -104 -28 -595 -33 -612 -6 -4 6 -8 160 -8 343 l0 332 57 7 c77 9 361 -2
400 -16 38 -14 50 -41 58 -137 l7 -73 47 0 47 0 -1 275 0 275 -46 0 c-52 0
-59 -8 -59 -68 0 -62 -18 -111 -43 -116 -44 -9 -298 -15 -383 -9 l-87 6 6 286
c4 157 9 298 13 313 6 26 6 26 129 33 128 8 394 -7 439 -25 35 -13 46 -39 46
-114 0 -89 4 -96 55 -96 49 0 55 10 55 96 0 28 7 99 15 159 11 75 12 112 5
119 -13 13 -246 15 -865 6z"/>
<path d="M27763 2093 l-383 -3 0 -45 c0 -49 -5 -47 120 -60 30 -3 60 -9 67
-13 34 -21 36 -62 41 -657 4 -612 -4 -825 -32 -853 -9 -9 -45 -16 -105 -20
l-91 -5 0 -51 0 -51 405 0 405 0 0 53 0 52 -70 0 c-93 0 -136 18 -146 62 -10
41 -10 1345 0 1409 l7 47 72 6 c104 10 227 -8 289 -41 113 -62 171 -195 147
-342 -5 -35 -21 -87 -34 -115 -58 -123 -133 -172 -285 -189 -66 -7 -101 -15
-105 -24 -2 -8 11 -29 29 -48 19 -19 63 -76 99 -127 67 -97 393 -621 433 -696
l23 -44 246 -2 245 -2 0 53 c0 52 0 53 -30 53 -51 0 -84 25 -157 117 -80 100
-473 680 -473 698 0 6 22 19 48 28 115 42 247 158 295 260 72 153 56 320 -40
427 -113 126 -154 131 -1020 123z"/>
<path d="M17980 2041 l0 -49 78 -6 c102 -9 109 -12 130 -49 15 -29 18 -87 22
-637 4 -389 10 -616 17 -635 61 -174 195 -285 411 -342 81 -21 126 -26 277
-30 154 -4 194 -2 278 15 201 42 369 158 437 304 55 118 60 168 70 698 9 489
13 583 32 632 12 32 52 48 119 48 l49 0 0 50 0 50 -295 0 -295 0 0 -49 0 -48
74 -6 c41 -3 88 -11 103 -19 55 -26 56 -44 57 -598 1 -454 -1 -512 -17 -575
-22 -86 -54 -143 -109 -189 -90 -78 -199 -110 -368 -109 -226 0 -372 71 -437
210 -36 78 -43 178 -43 618 1 398 10 587 30 624 13 25 68 41 138 41 l52 0 0
50 0 50 -405 0 -405 0 0 -49z"/>
<path d="M20150 2041 l0 -50 58 -6 c109 -11 134 -19 156 -48 21 -28 21 -34 21
-670 0 -353 -4 -672 -8 -709 -12 -100 -24 -109 -135 -116 l-92 -5 0 -52 0 -51
310 0 310 1 0 51 0 51 -65 2 c-94 2 -137 19 -147 56 -20 69 -38 1195 -20 1195
5 0 85 -91 178 -202 257 -308 639 -753 813 -948 86 -96 163 -182 171 -192 10
-12 47 -22 120 -34 58 -9 109 -17 114 -17 5 -1 8 318 7 763 -2 765 2 867 33
898 8 8 52 19 100 25 l86 11 0 48 0 48 -305 0 -305 0 0 -48 0 -48 96 -11 c61
-6 101 -15 111 -26 26 -26 32 -146 32 -657 l1 -484 -46 44 c-146 142 -816 930
-1004 1183 l-35 46 -277 1 -278 0 0 -49z"/>
<path d="M22460 2041 l0 -49 68 -6 c37 -4 79 -9 94 -12 53 -10 53 -7 53 -781
0 -661 -1 -714 -17 -730 -13 -13 -40 -18 -108 -21 l-90 -4 0 -52 0 -51 405 0
405 0 0 51 0 52 -85 3 c-96 4 -111 14 -125 75 -13 56 -13 1359 0 1406 14 48
27 55 128 63 l82 8 0 48 0 49 -405 0 -405 0 0 -49z"/>
<path d="M23500 2041 l0 -48 60 -7 c121 -14 132 -26 241 -267 57 -124 482
-1118 561 -1309 l35 -85 97 0 97 0 104 255 c131 324 493 1166 550 1280 24 47
49 91 57 97 7 6 31 14 53 18 102 17 95 12 95 66 l0 49 -300 0 -300 0 0 -49 0
-49 73 -7 c115 -10 126 -14 134 -43 8 -34 -6 -84 -82 -287 -89 -236 -360 -890
-369 -890 -8 0 -401 935 -447 1065 -16 46 -28 94 -25 106 8 29 42 42 130 50
l76 7 0 48 0 49 -420 0 -420 0 0 -49z"/>
<path d="M31080 2041 l0 -49 85 -7 c46 -4 92 -13 101 -20 28 -20 33 -97 40
-610 7 -548 -4 -867 -29 -893 -12 -11 -41 -17 -107 -20 l-90 -4 0 -52 0 -51
405 0 405 0 0 53 0 52 -64 0 c-76 0 -122 15 -139 44 -17 30 -23 1342 -7 1422
14 65 20 69 133 79 l77 7 0 49 0 49 -405 0 -405 0 0 -49z"/>
<path d="M32134 2029 c3 -34 6 -129 6 -210 l0 -149 54 0 53 0 6 88 c4 48 11
104 17 124 10 33 15 37 53 43 23 3 132 7 242 8 l200 2 0 -705 c0 -746 0 -750
-46 -778 -11 -7 -58 -16 -105 -19 l-84 -6 0 -46 0 -46 420 0 420 0 0 46 0 46
-80 6 c-89 6 -124 22 -143 65 -12 30 -24 1321 -12 1401 l7 44 206 -7 c114 -4
222 -9 240 -13 40 -7 49 -26 57 -120 12 -139 9 -133 65 -133 l50 0 0 133 c0
74 3 168 6 210 l7 77 -823 0 -823 0 7 -61z"/>
</g>
</svg>
